<?xml version="1.0" encoding="UTF-8"?>
<svg version="1.1" xmlns="http://www.w3.org/2000/svg" width="3000" height="2903">
<path d="M0 0 C0.76541988 0.00026688 1.53083977 0.00053375 2.31945419 0.00080872 C25.41362773 0.01091298 48.41566153 0.18687337 71.4375 2.1875 C72.99315325 2.31783739 74.54881777 2.44804043 76.10449219 2.578125 C157.56234545 9.49639756 237.54439672 27.18128055 369.4375 78.1875 C370.0464209 78.46209045 370.6553418 78.73668091 371.28271484 79.01959229 C431.13796286 106.0272083 488.1857583 139.34879644 540.4375 179.1875 C541.75506572 180.18378238 543.07278411 181.17986288 544.390625 182.17578125 C557.4213333 192.05039233 570.14368538 202.25901518 582.50732422 212.95825195 C585.86568535 215.8610066 589.2748796 218.67415125 592.75 221.4375 C599.96865063 227.29934111 606.60708201 233.79239333 613.33691406 240.20019531 C615.22911488 241.99035275 617.13567314 243.76212115 619.0546875 245.5234375 C627.0334587 252.85212776 634.76858615 260.4119619 642.4375 268.0625 C642.93268127 268.55509308 643.42786255 269.04768616 643.93804932 269.5552063 C649.12502461 274.72073356 654.22930304 279.91539634 658.96337891 285.50512695 C660.50300069 287.2622541 662.1279703 288.88220713 663.8125 290.5 C667.5324447 294.15381235 670.71948693 298.17156879 673.984375 302.23046875 C676.54246242 305.31402318 679.20818113 308.25676413 681.9375 311.1875 C686.1192525 315.69214276 690.09379567 320.31505903 693.9453125 325.10546875 C695.81619084 327.41914118 697.70481879 329.70936579 699.6171875 331.98828125 C707.70829033 341.65478489 715.29896107 351.59739903 722.69628906 361.80224609 C724.40189689 364.13872793 726.12970216 366.45668353 727.8671875 368.76953125 C753.34423125 402.75460481 775.94847822 439.34150193 795.71240234 476.91357422 C797.41689389 480.14839329 799.13922822 483.37322972 800.86328125 486.59765625 C840.90227931 562.02299354 868.97015523 644.8182039 899.4375 845.1875 C899.4858902 845.94395813 899.5342804 846.70041626 899.58413696 847.47979736 C900.64319286 864.5361246 900.63879622 881.60562615 900.625 898.6875 C900.62473312 899.42830936 900.62446625 900.16911873 900.62419128 900.93237686 C900.61373856 924.06842203 900.38800385 947.12058733 898.4375 970.1875 C898.37433594 970.95298157 898.31117187 971.71846313 898.24609375 972.50714111 C891.91645146 1048.87202587 876.20706114 1123.85514393 851.10943604 1196.24591064 C850.48761959 1198.0426772 849.8712551 1199.84132805 849.25537109 1201.64013672 C837.41166144 1236.15016454 822.39001577 1269.41174489 806.4375 1302.1875 C805.79361328 1303.5182959 805.79361328 1303.5182959 805.13671875 1304.87597656 C798.93873603 1317.66054569 792.13958182 1330.03895308 785.05908203 1342.35449219 C783.5021791 1345.07450147 781.96458081 1347.80439937 780.43359375 1350.5390625 C773.21871347 1363.38629698 765.49032039 1375.84962848 757.4375 1388.1875 C756.921875 1388.97753418 756.40625 1389.76756836 755.875 1390.58154297 C731.10356994 1428.391841 703.82627772 1464.50095034 673.4296875 1497.98046875 C671.67556619 1499.92376001 669.95777306 1501.89109448 668.25 1503.875 C657.49547527 1516.17373931 646.00305393 1527.78340723 634.43994141 1539.31542969 C632.0408127 1541.70913831 629.6471573 1544.10822881 627.25390625 1546.5078125 C625.70344595 1548.05761282 624.15267591 1549.60710335 622.6015625 1551.15625 C621.89931549 1551.86052124 621.19706848 1552.56479248 620.47354126 1553.29040527 C616.50564449 1557.23977126 612.44035181 1561.01724078 608.19535828 1564.66775513 C605.61068368 1566.90231864 603.12512704 1569.23371034 600.625 1571.5625 C595.92374815 1575.91074662 591.06500666 1580.00021219 586.07421875 1584.015625 C583.51329972 1586.12506349 581.06626545 1588.31637648 578.625 1590.5625 C573.12421627 1595.56242744 567.30141009 1600.10616382 561.42382812 1604.64697266 C559.3320743 1606.26926452 557.25124211 1607.90483548 555.171875 1609.54296875 C544.78776939 1617.70615008 534.21187315 1625.54814513 523.4375 1633.1875 C522.64085937 1633.7546875 521.84421875 1634.321875 521.0234375 1634.90625 C496.17562965 1652.57580225 470.45265683 1668.89116359 443.86767578 1683.8203125 C441.66581567 1685.05905237 439.47072656 1686.30883587 437.27734375 1687.5625 C411.10886978 1702.42815892 384.13566544 1715.44950593 356.48913574 1727.3059082 C354.5600409 1728.13484394 352.63357517 1728.96954958 350.70800781 1729.80664062 C274.89962372 1762.64218758 193.82912473 1783.23324514 31.6875 1799.75 C30.62718063 1799.78126984 30.62718063 1799.78126984 29.54544067 1799.81317139 C-57.23101047 1802.32365918 -143.73958096 1792.79107422 -282.47113037 1754.88092041 C-284.46449875 1754.21999357 -286.45965245 1753.56481423 -288.45556641 1752.91162109 C-346.22877393 1733.92407983 -402.70938469 1708.03430783 -454.88525391 1676.78271484 C-457.32241066 1675.33055524 -459.77223574 1673.9043627 -462.23046875 1672.48828125 C-473.75793229 1665.79177312 -484.84804122 1658.45293798 -495.9375 1651.0625 C-497.0894989 1650.29549774 -497.0894989 1650.29549774 -498.26477051 1649.51300049 C-508.16172346 1642.91406172 -517.92999207 1636.16660522 -527.5625 1629.1875 C-528.42375488 1628.56649414 -529.28500977 1627.94548828 -530.17236328 1627.30566406 C-540.67879729 1619.70786485 -550.88747273 1611.8266627 -560.88183594 1603.56835938 C-563.1493871 1601.70530455 -565.44831347 1599.88312664 -567.75 1598.0625 C-573.21279866 1593.70320491 -578.53503698 1589.18138159 -583.85058594 1584.64501953 C-585.55472891 1583.19411629 -587.26506337 1581.7508079 -588.9765625 1580.30859375 C-596.50473615 1573.9414711 -603.77796006 1567.34792589 -610.94921875 1560.58203125 C-614.07296099 1557.63533659 -617.25127479 1554.75411916 -620.4375 1551.875 C-627.30206651 1545.60125932 -633.85595507 1539.00468407 -640.4375 1532.4375 C-640.98388123 1531.89370697 -641.53026245 1531.34991394 -642.09320068 1530.78964233 C-647.56336291 1525.33992259 -652.97275359 1519.88092141 -657.99267578 1514.00683594 C-660.75112393 1510.80995326 -663.66701361 1507.75981917 -666.5625 1504.6875 C-671.32852319 1499.60166387 -676.04815651 1494.49968049 -680.5625 1489.1875 C-681.35527344 1488.26195312 -682.14804687 1487.33640625 -682.96484375 1486.3828125 C-693.86641982 1473.61307913 -704.43448552 1460.57975659 -714.5625 1447.1875 C-715.24795898 1446.28378662 -715.24795898 1446.28378662 -715.94726562 1445.36181641 C-727.61984484 1429.95764472 -739.0031388 1414.37907678 -749.5625 1398.1875 C-749.98708496 1397.54022949 -750.41166992 1396.89295898 -750.84912109 1396.22607422 C-763.48412984 1376.95780283 -775.41234166 1357.35303931 -786.5625 1337.1875 C-787.08279785 1336.25131836 -787.6030957 1335.31513672 -788.13916016 1334.35058594 C-808.73085591 1297.2201224 -826.58884648 1258.92277969 -841.5625 1219.1875 C-842.04210892 1217.92505087 -842.52193108 1216.66268273 -843.00195312 1215.40039062 C-870.33371087 1143.34059597 -887.50907658 1067.33516758 -880.5625 714.1875 C-880.3549408 713.18224274 -880.3549408 713.18224274 -880.14318848 712.15667725 C-866.44245804 646.16123766 -845.08125706 581.06532781 -816.01416016 520.22607422 C-814.52311687 517.10506434 -813.04799404 513.97685264 -811.57421875 510.84765625 C-783.70394753 451.93304982 -748.9861353 396.30764918 -708.5625 345.1875 C-707.7890625 344.20910156 -707.015625 343.23070312 -706.21875 342.22265625 C-704.34431211 339.86845152 -702.45801043 337.52476074 -700.5625 335.1875 C-699.8715625 334.33414062 -699.180625 333.48078125 -698.46875 332.6015625 C-690.39943496 322.68539719 -682.19600044 312.90022799 -673.59765625 303.4375 C-671.78872457 301.43760625 -670.01358199 299.41480568 -668.25 297.375 C-659.30222392 287.13431132 -649.90170899 277.38357639 -640.22485352 267.83398438 C-636.30895161 263.95546441 -632.42554044 260.04464329 -628.54296875 256.1328125 C-627.10415542 254.68661726 -625.66485519 253.24090855 -624.2253418 251.79541016 C-623.24624233 250.811288 -622.26804305 249.82626938 -621.29077148 248.84033203 C-616.11080449 243.6158531 -610.90515458 238.47611031 -605.31225586 233.68994141 C-602.72412628 231.46762392 -600.24617897 229.13761216 -597.75 226.8125 C-593.12469047 222.53910029 -588.36168099 218.49866271 -583.453125 214.55078125 C-580.81551176 212.39435421 -578.24006696 210.18561096 -575.67236328 207.94750977 C-568.65727432 201.84163793 -561.39895271 196.13992569 -553.9765625 190.5390625 C-551.00655381 188.29608033 -548.0668485 186.02064766 -545.1484375 183.7109375 C-536.00684316 176.48153355 -526.67301408 169.70587776 -517.00390625 163.19921875 C-513.74834689 161.00650174 -510.5481741 158.7559766 -507.37939453 156.44018555 C-497.44023824 149.18016353 -487.01100469 142.683041 -476.5625 136.1875 C-475.45970703 135.50171875 -474.35691406 134.8159375 -473.22070312 134.109375 C-458.16632359 124.77059325 -442.93856548 115.87525423 -427.26123047 107.61035156 C-424.7332378 106.27751809 -422.21149523 104.93363951 -419.69140625 103.5859375 C-414.99963378 101.08490461 -410.28749814 98.62513155 -405.5625 96.1875 C-404.23460449 95.50204102 -404.23460449 95.50204102 -402.87988281 94.80273438 C-357.76740563 71.62712045 -310.13004313 52.79678726 -261.5625 38.1875 C-260.31903809 37.81061035 -259.07557617 37.4337207 -257.79443359 37.04541016 C-191.78227596 17.12673934 -123.37428235 5.32388192 -54.5625 1.1875 C-53.81809662 1.14017731 -53.07369324 1.09285461 -52.30673218 1.0440979 C-34.88473768 -0.04163689 -17.44806333 -0.01362914 0 0 Z " fill="#00AED6" transform="translate(1484.5625,-0.1875)"/>
<path d="M0 0 C0.83297482 -0.00173973 1.66594963 -0.00347946 2.52416611 -0.00527191 C30.18637259 -0.05601739 57.75266096 0.71993931 85.375 2.1875 C86.62413744 2.25304392 86.62413744 2.25304392 87.89850998 2.31991196 C93.46057127 2.61252947 99.02150696 2.92177348 104.58203125 3.2421875 C105.27903515 3.28117849 105.97603905 3.32016949 106.69416428 3.36034203 C115.73200228 3.87276943 124.67378665 4.74272842 133.65336609 5.84588623 C138.62627633 6.43947766 143.60187595 6.86787417 148.59375 7.26171875 C160.78361281 8.27837277 172.91994163 9.6548232 185.0625 11.125 C186.14823303 11.25566864 187.23396606 11.38633728 188.3526001 11.52096558 C205.00423171 13.53335932 221.56233779 15.80620466 238.08300781 18.71240234 C241.71453605 19.33872121 245.3517162 19.91639734 248.9921875 20.48828125 C275.6484904 24.77853062 299.79564241 33.60632252 320.5625 51.3125 C321.81160156 52.37017578 321.81160156 52.37017578 323.0859375 53.44921875 C325.63611695 55.6816574 328.10515178 57.97820014 330.5625 60.3125 C331.08956543 60.8070166 331.61663086 61.3015332 332.15966797 61.81103516 C345.22780217 74.14094095 355.70808679 87.83932471 364.52880859 103.47998047 C365.20927674 104.68630875 365.89693956 105.88861139 366.59228516 107.08642578 C372.91208799 117.98816123 377.36949022 129.45043578 381.5625 141.3125 C381.975 142.46492187 382.3875 143.61734375 382.8125 144.8046875 C384.99902177 151.38133502 386.45088079 158.088441 387.8125 164.875 C387.98813477 165.72578125 388.16376953 166.5765625 388.34472656 167.453125 C389.25067553 172.23360723 389.64783964 176.77350861 389.60839844 181.64428711 C389.59845856 183.24305946 389.59845856 183.24305946 389.58831787 184.87413025 C389.57979797 185.67879227 389.57127808 186.48345428 389.5625 187.3125 C387.72266304 187.31339563 387.72266304 187.31339563 385.84565765 187.31430936 C331.78199903 187.34088948 277.71834517 187.37241715 223.65470886 187.42913818 C222.83603635 187.42999569 222.01736385 187.4308532 221.17388308 187.4317367 C203.38134369 187.45040291 185.58880538 187.46995549 167.79626798 187.49042095 C159.07064042 187.50045201 150.34501266 187.51028724 141.61938477 187.52001953 C140.75108619 187.52099134 139.88278761 187.52196314 138.98817695 187.5229644 C110.85099263 187.55436398 82.7138179 187.57283525 54.5766191 187.58459247 C25.65871864 187.59674426 -3.25914178 187.62195829 -32.17701556 187.66357614 C-36.26273281 187.66945011 -40.34845027 187.67517497 -44.43416786 187.68080902 C-45.64034348 187.68247921 -45.64034348 187.68247921 -46.87088629 187.68418314 C-59.80788357 187.70171366 -72.74485002 187.70550019 -85.68185759 187.70412921 C-98.69220818 187.70304441 -111.70247991 187.71648161 -124.71280058 187.74466428 C-132.43971291 187.76096295 -140.16644671 187.76620488 -147.89336976 187.75547175 C-153.66844619 187.74867819 -159.44332346 187.76275669 -165.21835474 187.78483662 C-167.55100008 187.79052365 -169.88367369 187.78949959 -172.21631052 187.78101245 C-193.76778401 187.51144204 -193.76778401 187.51144204 -212.5 197.25390625 C-221.25053868 206.5513536 -223.02083896 216.57895803 -222.75 228.81640625 C-222.25073358 238.78717267 -218.00045982 246.83737639 -210.953125 253.7734375 C-199.06909729 263.48068785 -182.62451802 261.86410148 -168.30638123 261.78005981 C-165.84278393 261.78037219 -163.37918633 261.78245204 -160.91559178 261.78614032 C-155.57246569 261.79013894 -150.22957428 261.7817958 -144.8864975 261.7624054 C-136.94062258 261.73365077 -128.99484746 261.7280891 -121.04892652 261.72724071 C-107.67496025 261.72520248 -94.30108156 261.70485574 -80.92715263 261.6742897 C-67.67744313 261.64412747 -54.42776753 261.62318741 -41.1780262 261.61413193 C-40.35278693 261.61356672 -39.52754767 261.61300151 -38.67730116 261.61241918 C-34.48558645 261.60960981 -30.29387165 261.60698571 -26.10215677 261.60444699 C3.57783534 261.58627736 33.2577841 261.55107583 62.93774414 261.50439453 C64.73147132 261.5015794 66.52519849 261.49876463 68.31892567 261.49595021 C69.20764788 261.494555 70.0963701 261.4931598 71.01202329 261.49172232 C75.5078324 261.48466518 80.00364153 261.47761665 84.49945068 261.47058105 C85.39085544 261.46918413 86.2822602 261.46778721 87.20067723 261.46634796 C107.89199917 261.43400761 128.5833267 261.4067593 149.2746582 261.38134766 C150.6037697 261.37970931 150.6037697 261.37970931 151.95973193 261.37803786 C172.20636429 261.35312546 192.45299746 261.33061701 212.69963741 261.31283379 C213.55164282 261.312083 214.40364823 261.31133221 215.28147198 261.31055867 C222.94777709 261.30382422 230.61408226 261.29718702 238.28038787 261.29105841 C257.37089566 261.27579059 276.46136556 261.25462618 295.55184652 261.21868075 C308.85978649 261.19364478 322.16772054 261.17516074 335.47567917 261.16355003 C343.37001327 261.1563995 351.26429016 261.14351949 359.15859937 261.12235774 C365.0701373 261.10712356 370.98165383 261.10252496 376.89321231 261.10185133 C379.27203878 261.09993234 381.65086567 261.09462973 384.02967519 261.08544876 C403.07281142 261.01481948 422.00535649 261.66280747 440.5625 266.3125 C441.41231445 266.52471191 442.26212891 266.73692383 443.13769531 266.95556641 C476.29786539 275.4618709 506.35444141 290.97813355 531.4609375 314.36328125 C533.34177667 316.10777706 535.26868031 317.74717568 537.25 319.375 C540.41292891 322.06496758 543.08586828 325.04503023 545.765625 328.2109375 C546.93296957 329.57622311 548.12992193 330.91692771 549.359375 332.2265625 C570.09066308 354.41418073 584.84723006 383.44139404 593.5625 412.3125 C593.92384033 413.50866943 593.92384033 413.50866943 594.29248047 414.72900391 C602.44914746 442.73110774 602.02012447 472.36472832 601.82678223 501.26104736 C601.80755044 504.6967159 601.80361574 508.13233134 601.8000679 511.56804657 C601.79487799 515.74330449 601.78043565 519.91851713 601.765625 524.09375 C601.76374428 524.85942795 601.76186356 525.6251059 601.75992584 526.41398621 C601.73197573 535.1905578 601.44687751 543.87614769 600.80130005 552.63381958 C600.47770159 557.61880738 600.37028768 562.59935926 600.26249695 567.5929718 C599.86683308 585.75848984 598.58652012 603.78014077 596.95289612 621.8719635 C596.74529986 624.1771922 596.54053392 626.48265719 596.33654785 628.78820801 C595.54407006 637.73843075 594.73283629 646.6867702 593.90301514 655.63360596 C593.61552325 658.73964172 593.3322829 661.84601039 593.05126953 664.95263672 C591.15341912 685.70894485 588.03845125 706.30187528 584.9561615 726.90855408 C584.63105494 729.0844746 584.30780591 731.26066516 583.98474121 733.43688965 C577.42476652 777.49028622 577.42476652 777.49028622 570.375 797.8125 C569.99263184 798.93285645 569.61026367 800.05321289 569.21630859 801.20751953 C557.32336259 835.33405571 540.17317649 867.17609627 515.71875 893.93359375 C513.76634564 896.08760509 511.87972641 898.28277726 510 900.5 C506.48483878 904.50935622 502.67066289 907.92163539 498.5625 911.3125 C498.05750977 911.74046875 497.55251953 912.1684375 497.03222656 912.609375 C477.30512932 929.298889 455.30847928 940.98271863 430.5625 948.3125 C429.71510254 948.56580078 428.86770508 948.81910156 427.99462891 949.08007812 C421.27610491 951.00824282 414.60786708 952.24165921 407.6875 953.1875 C406.50679932 953.35185547 405.32609863 953.51621094 404.10961914 953.68554688 C384.97437686 956.27721667 365.76737682 958.3157523 346.5625 960.3125 C345.27173553 960.44688477 345.27173553 960.44688477 343.95489502 960.58398438 C320.98769999 962.96176982 297.97528768 964.82498387 274.95117188 966.5534668 C272.23302531 966.75755605 269.51540634 966.96644567 266.79785156 967.1784668 C210.86550282 971.51311662 154.90329297 972.79514431 98.82540774 972.58512396 C91.78846386 972.55969406 84.75156469 972.55402833 77.71458149 972.5500679 C70.7861826 972.54603138 63.85780168 972.53358841 56.92941642 972.51972103 C54.79672333 972.51573425 52.66403073 972.51275572 50.53133583 972.50992584 C35.05274268 972.48579686 19.58626728 972.29683303 4.11401367 971.86230469 C3.03232971 971.83336616 3.03232971 971.83336616 1.92879355 971.80384302 C-5.57481151 971.59871269 -12.98501396 971.24550718 -20.4375 970.3125 C-22.32281945 970.18193928 -24.20967406 970.07071913 -26.09765625 969.98706055 C-27.63414574 969.9161898 -27.63414574 969.9161898 -29.20167542 969.84388733 C-30.29012253 969.7961467 -31.37856964 969.74840607 -32.5 969.69921875 C-34.90489079 969.58727112 -37.30975635 969.4747804 -39.71459961 969.36181641 C-40.97255341 969.30326477 -42.2305072 969.24471313 -43.52658081 969.18438721 C-71.88902112 967.84718976 -100.15923851 965.88739766 -128.4375 963.3125 C-130.60562962 963.11700381 -132.77376117 962.92152896 -134.94189453 962.72607422 C-214.84812453 955.48636643 -286.64263101 946.88614574 -349.4375 892.3125 C-350.36046875 891.51457031 -351.2834375 890.71664062 -352.234375 889.89453125 C-356.68713457 885.97475351 -360.80190199 881.98035158 -364.6171875 877.4375 C-365.91499274 875.92246555 -367.2593398 874.44678975 -368.6328125 873 C-390.71121055 849.71474418 -406.39962987 820.22712934 -417.4375 790.3125 C-417.7682251 789.43432617 -418.0989502 788.55615234 -418.43969727 787.65136719 C-426.7798122 765.23496752 -429.45849661 742.06413429 -432.18615723 718.46282959 C-432.53360888 715.49025327 -432.90205661 712.52045291 -433.2734375 709.55078125 C-438.1667073 670.26985738 -442.24455422 630.83867917 -444.4375 591.3125 C-444.48025999 590.54547697 -444.52301998 589.77845394 -444.56707573 588.98818779 C-446.26593568 558.23470197 -446.72596825 527.55991546 -446.63311768 496.7635498 C-446.62226156 492.23189808 -446.62269856 487.7002759 -446.62311554 483.16861343 C-446.62240424 448.05857424 -446.29757754 412.9867124 -444.0625 377.9375 C-443.99747284 376.88685364 -443.93244568 375.83620728 -443.865448 374.75372314 C-442.84030592 358.22328781 -441.54618614 341.74887924 -439.83789062 325.27392578 C-439.48763461 321.80852689 -439.1601117 318.34246408 -438.84518433 314.87376404 C-437.0020317 294.5763998 -434.69646948 274.33708015 -432.12948608 254.11898804 C-431.79822031 251.50841164 -431.47517351 248.89724242 -431.15640259 246.2850647 C-425.0130907 196.21096318 -409.06333308 148.86068521 -378.4375 108.3125 C-378.00324707 107.7340332 -377.56899414 107.15556641 -377.12158203 106.55957031 C-370.39924532 97.65376362 -363.16979601 89.35234508 -355.4375 81.3125 C-354.73343018 80.57555908 -354.73343018 80.57555908 -354.01513672 79.82373047 C-319.80963199 44.18051626 -277.72769475 27.23316875 -229.9375 19.3125 C-229.15468658 19.18210327 -228.37187317 19.05170654 -227.56533813 18.9173584 C-215.31321221 16.88149113 -203.05151812 15.08036816 -190.71972656 13.59179688 C-187.47576986 13.19480431 -184.23819763 12.75374891 -181 12.3125 C-178.47939093 11.97734209 -175.95860785 11.64385562 -173.4375 11.3125 C-172.61862305 11.20437988 -171.79974609 11.09625977 -170.95605469 10.98486328 C-143.83289312 7.42732734 -116.69564544 4.95837929 -89.3972168 3.31054688 C-86.68051389 3.14524224 -83.96416395 2.97450098 -81.24780178 2.80370235 C-74.09825263 2.35425854 -66.94776423 1.92303256 -59.79611206 1.50827026 C-57.73826677 1.38832044 -55.68055118 1.26608484 -53.62307739 1.1399231 C-35.76566452 0.05008231 -17.88441641 0.02725621 0 0 Z " fill="#FEFEFE" transform="translate(1409.4375,416.6875)"/>
<path d="M0 0 C61.99293763 -1.32524478 112.57801205 20.91533933 160.29248047 59.08691406 C160.29248047 43.57691406 160.29248047 28.06691406 160.29248047 12.08691406 C205.50248047 12.08691406 250.71248047 12.08691406 297.29248047 12.08691406 C297.35871888 106.66670664 297.35871888 106.66670664 297.37716675 153.46168518 C297.37744286 154.16028305 297.37771898 154.85888092 297.37800346 155.57864842 C297.38399069 170.7647826 297.38953085 185.95091692 297.39461113 201.13705143 C297.39710558 208.58542689 297.39969872 216.03380232 297.40234375 223.48217773 C297.40260527 224.22334042 297.40286679 224.9645031 297.40313623 225.72812526 C297.41164342 249.70728693 297.4266544 273.68643912 297.44507491 297.66559505 C297.46398587 322.32826851 297.47626194 346.99093672 297.48031045 371.6536173 C297.48088667 375.14519274 297.48153794 378.63676817 297.48223495 382.12834358 C297.4823698 382.81546695 297.48250465 383.50259031 297.48264358 384.21053559 C297.48499765 395.22598817 297.49424831 406.24142443 297.50614454 417.25687038 C297.5179843 428.35856055 297.52223949 439.46023847 297.51948322 450.56193566 C297.51820875 456.56591645 297.52009118 462.56984978 297.53089142 468.57382202 C297.62973485 526.3992026 297.62973485 526.3992026 293.04248047 548.39941406 C292.827771 549.46788574 292.61306152 550.53635742 292.3918457 551.63720703 C290.30741587 561.6523285 287.57889504 571.40353909 284.29248047 581.08691406 C284.05416504 581.79493164 283.81584961 582.50294922 283.5703125 583.23242188 C280.01279548 593.63883063 275.41032346 603.36567792 270.29248047 613.08691406 C269.77685547 614.0859375 269.26123047 615.08496094 268.72998047 616.11425781 C260.37201528 631.94442558 249.38755651 645.96971892 237.29248047 659.08691406 C236.16326172 660.37082031 236.16326172 660.37082031 235.01123047 661.68066406 C230.39475795 666.92953008 225.68321451 671.64597602 220.29248047 676.08691406 C219.13873954 677.06466645 217.98510358 678.0425427 216.83154297 679.02050781 C202.15910644 691.33213841 186.23882464 701.21043877 169.29248047 710.08691406 C168.6340918 710.43318848 167.97570312 710.77946289 167.29736328 711.13623047 C132.68830837 729.05222533 90.71030611 740.13783303 51.63378906 740.26391602 C50.27028069 740.27377281 50.27028069 740.27377281 48.87922668 740.28382874 C45.89978924 740.30337582 42.92040198 740.31518843 39.94091797 740.32519531 C38.39436964 740.3313086 38.39436964 740.3313086 36.81657791 740.33754539 C31.34891213 740.3583368 25.88127085 740.37266298 20.41357422 740.38208008 C14.8379332 740.39307302 9.26269911 740.42741024 3.68720055 740.46725178 C-0.66127122 740.49373078 -5.00965102 740.50179967 -9.35819626 740.50536156 C-11.40937391 740.51015473 -13.4605496 740.52155283 -15.51164627 740.54039955 C-34.57512459 740.70454973 -53.1118866 738.18077523 -71.58251953 733.39941406 C-72.55261963 733.1508667 -73.52271973 732.90231934 -74.5222168 732.64624023 C-118.78397416 720.9258372 -159.13603329 699.7582157 -194.70751953 671.08691406 C-195.2956543 670.61592285 -195.88378906 670.14493164 -196.48974609 669.65966797 C-205.73368119 662.17610874 -214.15786061 653.83913962 -222.58251953 645.46191406 C-223.11699707 644.93279419 -223.65147461 644.40367432 -224.20214844 643.85852051 C-239.50577044 628.67140562 -239.50577044 628.67140562 -243.70751953 622.08691406 C-242.47413155 618.38675011 -241.0693151 617.53988372 -238.02001953 615.14941406 C-233.50272783 611.5461269 -229.0787959 607.86584082 -224.70751953 604.08691406 C-220.58345935 600.53168977 -216.43541244 597.01896831 -212.20751953 593.58691406 C-206.80675781 589.19978504 -201.53284253 584.67467995 -196.25830078 580.13769531 C-188.9972095 573.89264085 -181.70198524 567.69060256 -174.27001953 561.64941406 C-170.02355056 558.19413582 -165.85551847 554.65886442 -161.70751953 551.08691406 C-159.94299947 549.5739854 -158.17773979 548.06192561 -156.41210938 546.55029297 C-155.29274837 545.58932908 -154.17580131 544.62554479 -153.06152344 543.65869141 C-151.55587848 542.35441776 -150.03825414 541.06401096 -148.52001953 539.77441406 C-147.2303125 538.66646484 -147.2303125 538.66646484 -145.91455078 537.53613281 C-144.82207031 536.81876953 -144.82207031 536.81876953 -143.70751953 536.08691406 C-139.71808543 537.41672543 -138.50089389 539.9868334 -136.27001953 543.33691406 C-131.43236099 550.35192517 -126.01705283 556.54306873 -120.09326172 562.65429688 C-118.85001335 563.93960016 -117.62516849 565.24264483 -116.40283203 566.54785156 C-96.51343882 587.31150381 -68.96148649 601.81475516 -41.70751953 610.08691406 C-40.69117432 610.39749756 -40.69117432 610.39749756 -39.65429688 610.71435547 C6.06782498 624.40907125 59.9179373 621.62789747 102.40185547 599.28613281 C127.65747787 585.40561252 146.55068366 562.57034122 155.29248047 535.08691406 C159.39808374 520.37912996 159.79679636 506.00949632 159.54248047 490.83691406 C159.52234769 488.71193125 159.50410912 486.58692961 159.48779297 484.46191406 C159.44441984 479.33643525 159.3757822 474.21189296 159.29248047 469.08691406 C158.65979248 469.66699219 158.02710449 470.24707031 157.37524414 470.84472656 C152.27221662 475.48671501 147.14189674 479.97102714 141.60498047 484.08691406 C140.92636963 484.59254883 140.24775879 485.09818359 139.54858398 485.61914062 C133.31239141 490.19316719 126.8498765 494.26031773 120.11621094 498.05761719 C118.92333276 498.73086677 117.73463056 499.41158365 116.55078125 500.10058594 C79.39256766 521.70689205 37.04560105 527.84020607 -5.27001953 526.83691406 C-6.28697906 526.81358002 -7.3039386 526.79024597 -8.35171509 526.76620483 C-23.28877002 526.40520925 -37.99088689 525.86085168 -52.70751953 523.08691406 C-54.26647949 522.79905029 -54.26647949 522.79905029 -55.85693359 522.50537109 C-99.73516611 514.15343866 -141.40582561 495.9531088 -175.70751953 467.08691406 C-176.21959961 466.66361816 -176.73167969 466.24032227 -177.25927734 465.80419922 C-190.32847376 454.99448778 -202.20148586 443.42759456 -212.70751953 430.08691406 C-214.18655827 428.33680594 -215.6657276 426.58680818 -217.14501953 424.83691406 C-243.46013591 392.51211713 -261.01218604 351.12130467 -267.70751953 310.08691406 C-267.83033295 309.35079895 -267.95314636 308.61468384 -268.0796814 307.85626221 C-270.50280543 293.01802055 -271.23424252 278.48207421 -271.14501953 263.46191406 C-271.14197815 262.37017883 -271.13893677 261.2784436 -271.13580322 260.15362549 C-271.06587016 243.13689067 -270.28818365 226.77198572 -266.70751953 210.08691406 C-266.49853027 209.07741699 -266.28954102 208.06791992 -266.07421875 207.02783203 C-253.85416917 149.47917905 -221.27637251 94.48891583 -174.70751953 58.08691406 C-173.45091354 57.07791849 -172.19440959 56.06879584 -170.93798828 55.05957031 C-160.42034477 46.71227407 -149.38170093 39.69981305 -137.70751953 33.08691406 C-136.64911865 32.47638184 -136.64911865 32.47638184 -135.56933594 31.85351562 C-109.50204428 16.89163016 -80.25835069 7.98405661 -50.70751953 3.08691406 C-50.04010742 2.97508789 -49.37269531 2.86326172 -48.68505859 2.74804688 C-32.62146404 0.18272724 -16.21999771 0.38023964 0 0 Z M-61.70751953 144.08691406 C-62.61888672 144.57933594 -63.53025391 145.07175781 -64.46923828 145.57910156 C-93.08020656 161.88873565 -114.13135695 189.09633682 -123.07861328 220.69970703 C-133.55408659 260.46258668 -130.75570211 301.52764251 -110.70751953 337.73535156 C-91.37219507 370.13712576 -61.22301774 391.99576068 -24.97314453 401.86035156 C-13.52320529 404.67208116 -2.31517786 405.42794708 9.41748047 405.33691406 C10.14336365 405.33347992 10.86924683 405.33004578 11.61712646 405.32650757 C56.15136643 405.07998551 97.33597039 393.08104 130.29248047 362.08691406 C130.89447266 361.549375 131.49646484 361.01183594 132.11669922 360.45800781 C147.11337775 346.51004806 156.7690629 326.23353745 159.29248047 306.08691406 C159.37560422 303.58939388 159.41033671 301.08996378 159.40600586 298.59106445 C159.4062249 297.5215152 159.4062249 297.5215152 159.40644836 296.43035889 C159.40575759 294.09839726 159.39800477 291.7665178 159.39013672 289.43457031 C159.38826956 287.80789738 159.38684707 286.18122387 159.385849 284.55455017 C159.38204724 280.29176252 159.37223715 276.02900943 159.36114502 271.76623535 C159.35088036 267.4089403 159.34634058 263.05163962 159.34130859 258.69433594 C159.3306126 250.15851286 159.31356455 241.62271777 159.29248047 233.08691406 C158.30248047 233.08691406 157.31248047 233.08691406 156.29248047 233.08691406 C156.35435547 232.07628906 156.41623047 231.06566406 156.47998047 230.02441406 C156.34565467 204.59206316 141.59257144 182.88615273 124.72998047 165.14941406 C96.77637458 137.93029241 57.75136703 123.56793757 18.94335938 123.85229492 C-9.54879997 124.47874591 -36.63296933 130.36265666 -61.70751953 144.08691406 Z " fill="#000000" transform="translate(270.70751953125,2162.9130859375)"/>
<path d="M0 0 C0.60231445 0.43393066 1.20462891 0.86786133 1.82519531 1.31494141 C22.98184372 16.64851428 43.27284097 34.08278745 58.74511719 55.28759766 C60.07178198 57.09795308 61.42798314 58.88336952 62.7890625 60.66796875 C69.16621773 69.09555044 74.8436536 77.77709422 80 87 C80.433125 87.77053711 80.86625 88.54107422 81.3125 89.33496094 C115.49923239 150.73996534 122.50914147 223.46386002 104.04882812 291.0012207 C89.23497757 342.3571753 58.33255592 390.92104299 16 424 C14.75516978 424.99734772 13.51038069 425.99474677 12.265625 426.9921875 C-20.37401653 452.85237308 -58.83677548 470.25721978 -99.6875 478.25 C-100.45731201 478.40122314 -101.22712402 478.55244629 -102.02026367 478.70825195 C-116.62373306 481.37643975 -131.23754433 482.38538055 -146.0625 482.3125 C-146.86193024 482.31034485 -147.66136047 482.3081897 -148.48501587 482.30596924 C-186.46437083 482.1429212 -223.823174 473.75676862 -258 457 C-259.34360596 456.34257812 -259.34360596 456.34257812 -260.71435547 455.671875 C-274.87861102 448.6679164 -288.82187666 441.08210492 -301.23828125 431.22265625 C-303.21781421 429.69488028 -303.21781421 429.69488028 -307 429 C-307 511.83 -307 594.66 -307 680 C-352.87 680 -398.74 680 -446 680 C-446 445.04 -446 210.08 -446 -32 C-401.12 -32 -356.24 -32 -310 -32 C-310 -16.82 -310 -1.64 -310 14 C-305.68305709 12.27322284 -304.22933169 11.56086052 -301.125 8.5625 C-273.93526478 -16.32378589 -237.78312567 -33.17085255 -202 -41 C-201.16355957 -41.18401367 -200.32711914 -41.36802734 -199.46533203 -41.55761719 C-131.72926761 -56.03729072 -56.39108933 -40.62822578 0 0 Z M-269 113 C-269.84046875 113.70769531 -270.6809375 114.41539062 -271.546875 115.14453125 C-291.42890418 132.27888869 -304.49205139 155.50256438 -306.79043579 181.7633667 C-307.18656431 187.88140931 -307.16470561 194.00427249 -307.16796875 200.1328125 C-307.17119404 201.57852204 -307.17455899 203.02423127 -307.17805481 204.46994019 C-307.18400437 207.48712925 -307.18589914 210.50428987 -307.18530273 213.52148438 C-307.18522163 216.57981296 -307.19214465 219.63799127 -307.20581055 222.69628906 C-308.0097451 250.78480402 -308.0097451 250.78480402 -302.4375 278.0625 C-302.1799292 278.79944092 -301.9223584 279.53638184 -301.65698242 280.2956543 C-296.61810208 294.0419316 -288.87613161 305.30949472 -279 316 C-278.35675781 316.72445312 -277.71351563 317.44890625 -277.05078125 318.1953125 C-251.16554711 345.93350266 -210.22141893 357.65279851 -173.42700195 358.97900391 C-138.72539412 359.66204796 -104.52119184 348.66098693 -78 326 C-77.46036621 325.54399414 -76.92073242 325.08798828 -76.36474609 324.61816406 C-49.32881919 301.52150883 -32.89052478 268.34521268 -30 233 C-28.79006165 211.65598607 -30.27035999 190.0795901 -38 170 C-38.25265625 169.34338379 -38.5053125 168.68676758 -38.765625 168.01025391 C-44.61690279 153.16335358 -52.43903788 139.99357959 -63 128 C-63.73089844 127.14792969 -64.46179687 126.29585937 -65.21484375 125.41796875 C-89.3728882 97.77844865 -124.51475815 81.04909199 -161 78 C-200.08016952 75.97483715 -239.30884642 86.90639417 -269 113 Z " fill="#000000" transform="translate(1724,2206)"/>
<path d="M0 0 C1.88506273 1.76052862 3.75500861 3.53587088 5.625 5.3125 C6.30691406 5.92996094 6.98882813 6.54742188 7.69140625 7.18359375 C41.07516431 38.47651101 54.7667609 85.87063779 56.53248668 130.2387259 C56.85838817 141.06686961 56.75619329 151.90837361 56.74106562 162.7405895 C56.73669288 166.6782609 56.73821232 170.61593098 56.7389679 174.55360413 C56.73948886 181.35389287 56.73638708 188.15417193 56.73073006 194.95445824 C56.72255663 204.78618176 56.71999389 214.61790065 56.71874207 224.4496272 C56.71656067 240.40611805 56.70992545 256.36260374 56.70043945 272.3190918 C56.69124164 287.80704727 56.68417243 303.29500133 56.67993164 318.78295898 C56.67953756 320.21819023 56.67953756 320.21819023 56.67913551 321.68241604 C56.67783035 326.48314493 56.67656667 331.28387382 56.67532361 336.08460271 C56.66497943 375.82723972 56.64655654 415.56986718 56.625 455.3125 C12.735 455.3125 -31.155 455.3125 -76.375 455.3125 C-76.705 438.1525 -77.035 420.9925 -77.375 403.3125 C-82.655 408.5925 -87.935 413.8725 -93.375 419.3125 C-97.98487987 423.12066163 -102.5521544 426.80484709 -107.375 430.3125 C-108.43074219 431.08980469 -109.48648438 431.86710937 -110.57421875 432.66796875 C-143.00304266 455.84281093 -181.44043448 468.56258987 -221.3125 468.5 C-222.38105225 468.49909363 -222.38105225 468.49909363 -223.47119141 468.49816895 C-284.14562542 468.36042521 -346.72582475 459.11848291 -391.9375 414.8125 C-401.45002746 405.2365557 -408.87194054 395.13265063 -415.375 383.3125 C-415.92929688 382.32765625 -416.48359375 381.3428125 -417.0546875 380.328125 C-427.58840022 360.5705913 -431.60552783 338.62191241 -431.625 316.4375 C-431.62567474 315.74686462 -431.62634949 315.05622925 -431.62704468 314.34466553 C-431.61010654 303.41592422 -431.01146651 292.95178415 -428.375 282.3125 C-428.12556641 281.2596582 -428.12556641 281.2596582 -427.87109375 280.18554688 C-420.0156621 247.86190035 -398.85185128 223.95849925 -370.92773438 206.80957031 C-320.46248774 176.5653867 -258.76595891 167.09317652 -201.375 158.75 C-143.46745897 152.80416414 -143.46745897 152.80416414 -95.95703125 123.57421875 C-91.0220308 116.10936247 -90.76582627 106.84976776 -92.484375 98.3671875 C-96.69236624 83.93451578 -104.88179328 75.5958478 -117.56103516 68.30224609 C-146.53314888 52.49431217 -190.54225267 51.79678298 -221.625 60.7890625 C-251.21953255 69.85268755 -277.28178408 88.86455884 -292.375 116.3125 C-297.115003 125.61134479 -300.60326058 135.25848868 -303.375 145.3125 C-310.83813254 144.72963209 -318.05719441 143.51064325 -325.38647461 142.01171875 C-326.54379089 141.77909332 -327.70110718 141.5464679 -328.89349365 141.30679321 C-332.68908252 140.54259336 -336.48321773 139.77142701 -340.27734375 139 C-342.9236969 138.46486118 -345.57032368 137.93108106 -348.2169342 137.3972168 C-353.74758806 136.28079941 -359.27748417 135.16069322 -364.80688477 134.03808594 C-371.19777076 132.74059736 -377.58959783 131.44783481 -383.98199648 130.1578207 C-390.80187714 128.78152658 -397.62116951 127.40233668 -404.44023442 126.02200699 C-406.40180145 125.62510973 -408.36346578 125.22869627 -410.32514763 124.83236694 C-413.97359414 124.09462815 -417.62151633 123.35435299 -421.26928711 122.61328125 C-422.35552872 122.39402985 -423.44177032 122.17477844 -424.56092834 121.94888306 C-425.55188507 121.74701385 -426.5428418 121.54514465 -427.56382751 121.3371582 C-428.42562087 121.16239456 -429.28741423 120.98763092 -430.17532253 120.80757141 C-432.375 120.3125 -432.375 120.3125 -435.375 119.3125 C-434.90437475 112.53263874 -433.81661545 106.30316802 -431.8125 99.8125 C-431.54928955 98.95229248 -431.2860791 98.09208496 -431.01489258 97.20581055 C-428.17614413 88.23904852 -424.50537499 79.75217639 -420.375 71.3125 C-420.02034668 70.58401855 -419.66569336 69.85553711 -419.30029297 69.10498047 C-414.21676595 58.78928529 -408.35627869 49.44273907 -401.375 40.3125 C-400.70726562 39.43207031 -400.03953125 38.55164062 -399.3515625 37.64453125 C-388.57220134 23.80735131 -376.23333007 11.05953737 -362.375 0.3125 C-361.72305664 -0.19941895 -361.07111328 -0.71133789 -360.39941406 -1.23876953 C-347.7757334 -11.09076655 -334.5446599 -19.2463362 -320.375 -26.6875 C-319.57658691 -27.10870117 -318.77817383 -27.52990234 -317.95556641 -27.96386719 C-229.7349814 -73.80304886 -93.62486086 -74.18092667 0 0 Z M-83.375 216.3125 C-84.4240601 217.45156821 -85.46370372 218.59930738 -86.5 219.75 C-112.8986662 246.1486662 -160.70042579 249.80878184 -195.44433594 256.28051758 C-207.12376233 258.46355451 -218.76018431 260.75618447 -230.34375 263.40625 C-231.36951141 263.63913727 -232.39527283 263.87202454 -233.45211792 264.11196899 C-256.48601292 269.49133064 -283.89606503 277.09965052 -298.375 297.3125 C-303.35112461 306.24436412 -303.83045819 316.50887887 -301.71484375 326.3984375 C-298.21151443 337.22690993 -291.22271871 344.81517911 -281.375 350.3125 C-243.34498355 368.61686805 -190.42409243 362.62459806 -151.75634766 349.15771484 C-126.26075205 339.7113437 -99.40379322 323.99871572 -87.2852478 298.61213684 C-82.95468764 287.67147249 -81.8008419 277.33531994 -81.984375 265.62890625 C-81.9918636 264.19303691 -81.99754408 262.75715715 -82.00152588 261.3212738 C-82.016577 257.59754685 -82.05567219 253.8744746 -82.1003418 250.15100098 C-82.14174641 246.32927297 -82.15963188 242.50743598 -82.1796875 238.68554688 C-82.22219424 231.22757066 -82.29018484 223.7701281 -82.375 216.3125 C-82.705 216.3125 -83.035 216.3125 -83.375 216.3125 Z " fill="#000000" transform="translate(2309.375,2215.6875)"/>
<path d="M0 0 C0.85255371 0.24943359 1.70510742 0.49886719 2.58349609 0.75585938 C36.79437438 10.93603276 68.67947497 28.05585767 96 51 C96.52126465 51.43248047 97.0425293 51.86496094 97.57958984 52.31054688 C109.95312008 62.59302455 120.98990253 73.37777856 131 86 C131.72703125 86.85980469 132.4540625 87.71960937 133.203125 88.60546875 C168.158926 129.97798147 188.93856598 187.29297565 189.203125 241.4140625 C189.21018463 242.37845749 189.21724426 243.34285248 189.22451782 244.33647156 C189.45259885 284.63693043 189.45259885 284.63693043 186 302 C185.80664062 303.00546875 185.61328125 304.0109375 185.4140625 305.046875 C177.18980423 346.67583661 160.21620858 384.65358471 134 418 C133.26394531 418.95003906 132.52789063 419.90007813 131.76953125 420.87890625 C127.2475329 426.57170342 122.38597693 431.92903084 117.4375 437.25 C116.51747192 438.24290039 116.51747192 438.24290039 115.57885742 439.25585938 C111.29218789 443.81033868 106.75761621 447.94491259 102 452 C100.98974279 452.8880247 99.98053123 453.77724123 98.97265625 454.66796875 C86.00141868 465.89810061 71.9649038 475.61600561 57 484 C56.24299805 484.42635742 55.48599609 484.85271484 54.70605469 485.29199219 C17.83447429 505.85185777 -23.032694 517.30911219 -65 521 C-65.80115234 521.07057617 -66.60230469 521.14115234 -67.42773438 521.21386719 C-73.28191319 521.68873405 -79.12869123 521.88420749 -85 522 C-85.63891174 522.0133136 -86.27782349 522.0266272 -86.93609619 522.04034424 C-168.080595 523.6718759 -238.77816251 498.56773606 -298.14453125 442.76171875 C-301.68015639 439.34217433 -304.85575832 435.7744167 -308 432 C-308.88560781 430.99656307 -309.77387339 429.99546866 -310.6640625 428.99609375 C-338.21744099 397.85057111 -358.15875465 359.37535984 -368 319 C-368.19287598 318.21447754 -368.38575195 317.42895508 -368.58447266 316.61962891 C-384.91741683 248.08391807 -371.78278408 174.12358544 -335.79174805 113.98095703 C-318.52060115 85.94932472 -295.71395616 59.41019381 -269 40 C-268.34563965 39.51724609 -267.6912793 39.03449219 -267.01708984 38.53710938 C-191.39874154 -17.10085363 -88.7780282 -26.37003528 0 0 Z M-196.85546875 156.91796875 C-198.63906911 158.89747945 -200.33005641 160.92365421 -202 163 C-202.68578125 163.84820313 -203.3715625 164.69640625 -204.078125 165.5703125 C-213.9177722 178.19671293 -221.8270743 191.82246538 -227 207 C-227.22526367 207.6487207 -227.45052734 208.29744141 -227.68261719 208.96582031 C-240.11776559 245.49074264 -236.62007694 284.20618355 -219.81640625 318.68505859 C-216.37196087 325.51851854 -212.62246765 331.88256762 -208 338 C-207.3503125 338.87011719 -206.700625 339.74023438 -206.03125 340.63671875 C-182.26639078 371.00785414 -149.27235128 390.53876266 -111 396 C-110.13890625 396.13019531 -109.2778125 396.26039063 -108.390625 396.39453125 C-73.93465968 400.73043293 -36.69902774 390.91983627 -9 370 C-8.14148438 369.36191406 -7.28296875 368.72382813 -6.3984375 368.06640625 C24.43306704 344.01055684 44.01421525 310.51308303 49.3125 271.71142578 C53.79405211 232.45783093 45.38340087 194.7179689 20.8125 163.4375 C-2.39496999 136.30764071 -33.44607147 116.13774641 -69.63891602 112.16333008 C-117.69880772 108.83874446 -162.75171719 121.66545924 -196.85546875 156.91796875 Z " fill="#000000" transform="translate(1011,2172)"/>
<path d="M0 0 C50.82 0 101.64 0 154 0 C158.781357 9.562714 163.55501119 19.11635193 168.1875 28.75 C168.74155518 29.90137451 169.29561035 31.05274902 169.86645508 32.23901367 C174.24919959 41.37556474 178.52835253 50.55767733 182.77880859 59.75634766 C187.39847826 69.74035424 192.09636123 79.6862421 196.8125 89.625 C198.35816214 92.88277018 199.90376695 96.14056753 201.44921875 99.3984375 C201.83124954 100.20375412 202.21328033 101.00907074 202.60688782 101.83879089 C206.46196437 109.96847622 210.29632005 118.10785624 214.125 126.25 C214.45118317 126.94361633 214.77736633 127.63723267 215.11343384 128.35186768 C216.75332701 131.83925724 218.39286678 135.3268128 220.03222656 138.81445312 C223.01873455 145.16760387 226.00850775 151.51921814 228.99798584 157.87097168 C230.66545298 161.41392037 232.33271634 164.95696496 234 168.5 C234.66666569 169.91666713 235.33333235 171.33333379 236 172.75 C272 249.25 272 249.25 272.99983215 251.37464905 C273.66705243 252.79248832 274.33427859 254.21032482 275.00151062 255.62815857 C276.65975511 259.15186176 278.31790002 262.67561174 279.97583008 266.19946289 C283.07600728 272.78846896 286.17716712 279.37700723 289.28170776 285.96395874 C290.73464944 289.04684024 292.18704651 292.12997816 293.6394043 295.21313477 C294.32630785 296.67094475 295.01347286 298.12863157 295.70092773 299.58618164 C297.80812061 304.05397392 299.90792923 308.52510445 302 313 C302.51643066 314.10230957 303.03286133 315.20461914 303.56494141 316.34033203 C304.02433105 317.33274902 304.4837207 318.32516602 304.95703125 319.34765625 C305.35510986 320.20496338 305.75318848 321.06227051 306.16333008 321.94555664 C307 324 307 324 307 326 C308.91824271 325.97503103 308.91824271 325.97503103 311 325 C312.72238097 322.28195407 312.72238097 322.28195407 314.14453125 318.80859375 C314.4307988 318.16503433 314.71706635 317.52147491 315.01200867 316.8584137 C315.63229917 315.45964192 316.24586768 314.05787452 316.85351562 312.65356445 C318.15864586 309.63761049 319.49543584 306.63604251 320.83041382 303.63320923 C321.52383397 302.07256828 322.21556372 300.51117524 322.90567017 298.94906616 C326.02269603 291.90250829 329.27729221 284.92564024 332.57247925 277.96099854 C337.89627096 266.70524201 343.11667324 255.40629269 348.25 244.0625 C353.87394462 231.63686034 359.57006214 219.24632929 365.3125 206.875 C365.71238129 206.01345306 366.11226257 205.15190613 366.52426147 204.26425171 C368.14605367 200.77029894 369.76790657 197.27637438 371.38996887 193.782547 C375.62748337 184.65285075 379.84649674 175.51464547 384.0625 166.375 C384.43170563 165.57471375 384.80091125 164.77442749 385.18130493 163.94989014 C387.04309709 159.91427191 388.90467665 155.87855567 390.76611328 151.84277344 C394.13430846 144.54050418 397.50466128 137.23923082 400.87481689 129.93786621 C401.99790396 127.50454137 403.12080553 125.07113102 404.24365234 122.63769531 C407.64408207 115.26858693 411.04557189 107.89997608 414.45195007 100.53361511 C416.36445385 96.39771216 418.27618441 92.26145217 420.1875 88.125 C420.56258698 87.31328339 420.93767395 86.50156677 421.3241272 85.66525269 C426.79714674 73.81701881 432.2128211 61.94389481 437.59661865 50.05490112 C442.42602723 39.39660891 447.34175143 28.78059453 452.3125 18.1875 C452.63777679 17.49415558 452.96305359 16.80081116 453.29818726 16.0864563 C458.54471837 4.91056325 458.54471837 4.91056325 461 0 C511.82 0 562.64 0 615 0 C614.28737825 3.56310876 613.87249134 5.62991259 612.36450195 8.6875 C612.02882202 9.37546661 611.69314209 10.06343323 611.34729004 10.77224731 C610.79833069 11.87498489 610.79833069 11.87498489 610.23828125 13 C609.8561145 13.77955048 609.47394775 14.55910095 609.0802002 15.36227417 C607.82951985 17.91078577 606.57094573 20.45531531 605.3125 23 C604.43968389 24.77587803 603.56753798 26.5520856 602.69604492 28.32861328 C600.94640253 31.89481995 599.19459156 35.45994798 597.44140625 39.02441406 C594.19837203 45.62527183 591.00167519 52.24797185 587.8125 58.875 C582.92955069 69.00628455 578.03304935 79.13085673 573.125 89.25 C572.79184784 89.93692932 572.45869568 90.62385864 572.115448 91.331604 C569.40382191 96.92261771 566.69155369 102.51331984 563.97924805 108.10400391 C561.61086384 112.98585639 559.24274847 117.86783915 556.875 122.75 C556.54162628 123.43737244 556.20825256 124.12474487 555.86477661 124.83294678 C551.25340518 134.34186547 546.65346737 143.85621011 542.0625 153.375 C536.53176356 164.84228214 530.97387331 176.29618909 525.40802002 187.74645996 C520.57043592 197.69922335 515.74483977 207.65758932 510.9375 217.625 C503.98976946 232.03024011 497.01283828 246.42122023 490.03222656 260.81054688 C488.01833662 264.96197607 486.00514609 269.11374414 483.9921875 273.265625 C483.49779175 274.285354 483.49779175 274.285354 482.9934082 275.32568359 C481.99559347 277.38378324 480.99779373 279.44189016 480 281.5 C476.31687015 289.09704694 472.63371243 296.69407987 468.94865417 304.29019165 C462.30777236 317.97928471 455.67212452 331.67077993 449.0625 345.375 C443.53143763 356.84295792 437.97330973 368.29758442 432.40701294 379.74847412 C427.58999753 389.65861811 422.78578994 399.57473587 418 409.5 C412.49022204 420.92674506 406.95279537 432.33985017 401.40673828 443.74902344 C396.58981542 453.65898475 391.78570101 463.57492031 387 473.5 C381.49022204 484.92674506 375.95279537 496.33985017 370.40673828 507.74902344 C365.58981542 517.65898475 360.78570101 527.57492031 356 537.5 C350.49022204 548.92674506 344.95279537 560.33985017 339.40673828 571.74902344 C334.58981542 581.65898475 329.78570101 591.57492031 325 601.5 C319.85226013 612.17591318 314.68160665 622.84048821 309.5 633.5 C304.29810626 644.2014455 299.10768309 654.90819273 293.9375 665.625 C286.31164391 681.42632344 278.65452408 697.21254408 271 713 C218.53 713 166.06 713 112 713 C114.24984387 706.25046839 114.24984387 706.25046839 115.84082031 703.01538086 C116.19644043 702.28745834 116.55206055 701.55953583 116.91845703 700.80955505 C117.49249268 699.64892296 117.49249268 699.64892296 118.078125 698.46484375 C118.48111816 697.64222549 118.88411133 696.81960724 119.29931641 695.97206116 C120.16359869 694.20883888 121.0295768 692.44644702 121.89709473 690.68481445 C123.72789035 686.96705877 125.55055968 683.24533943 127.37371826 679.52383423 C128.29130181 677.65104656 129.20931136 675.77846756 130.12774658 673.90609741 C133.86524594 666.28505903 137.56766624 658.64784035 141.25 651 C142.36317458 648.69005276 143.47645609 646.38015704 144.58984375 644.0703125 C145.41911377 642.34989746 145.41911377 642.34989746 146.26513672 640.59472656 C149.43938925 634.01751093 152.6257298 627.44615759 155.8125 620.875 C156.14413147 620.19111206 156.47576294 619.50722412 156.81744385 618.8026123 C160.64194822 610.91629566 164.46980836 603.03161387 168.30078125 595.1484375 C169.74219906 592.18229728 171.18361133 589.21615438 172.625 586.25 C173.1604393 585.1481839 173.1604393 585.1481839 173.70669556 584.02410889 C179.0528935 573.0216744 184.3789052 562.00972214 189.69189453 550.99121094 C193.91661032 542.2337397 198.16036432 533.48563625 202.41113281 524.74078369 C203.49088891 522.51874975 204.56980915 520.29631203 205.6484375 518.07373047 C208.80281392 511.57476715 211.9595561 505.07710167 215.1373291 498.58953857 C216.45213053 495.90330806 217.76248941 493.2149256 219.07202148 490.52612305 C219.68402339 489.27233225 220.29807423 488.01953921 220.91430664 486.76782227 C221.76062912 485.04831364 222.59924987 483.32502075 223.4375 481.6015625 C224.14712891 480.15257568 224.14712891 480.15257568 224.87109375 478.67431641 C226.48138746 474.85961975 227.49739379 472.42269648 226.09472656 468.41064453 C225.37494629 467.03561768 225.37494629 467.03561768 224.640625 465.6328125 C224.10791992 464.59519775 223.57521484 463.55758301 223.02636719 462.48852539 C222.44016602 461.37856201 221.85396484 460.26859863 221.25 459.125 C220.33794344 457.35178838 219.42591284 455.57856155 218.5166626 453.8039093 C217.89923657 452.59971213 217.28020588 451.39633641 216.65960693 450.19377136 C213.91333155 444.86700684 211.31093177 439.48017911 208.75 434.0625 C204.15609792 424.3911272 199.49508139 414.75364053 194.8125 405.125 C194.07917968 403.61678218 193.34586264 402.10856278 192.61254883 400.6003418 C191.50389255 398.32026184 190.39519275 396.0402031 189.28636169 393.76020813 C185.49720652 385.96814414 181.7166205 378.17193457 177.9375 370.375 C177.27661284 369.01155526 176.61572417 367.64811125 175.95483398 366.28466797 C174.96431141 364.2411691 173.97379709 362.19766624 172.98332214 360.15414429 C170.63436336 355.30803062 168.28420487 350.46249988 165.93359375 345.6171875 C159.06082722 331.44934943 152.19959874 317.27612418 145.35888672 303.09277344 C140.75571763 293.55383258 136.13037033 284.02576214 131.5 274.5 C125.72665099 262.62286157 119.97080858 250.73755497 114.23388672 238.84277344 C109.87478378 229.80672924 105.50301764 220.77689231 101.125 211.75 C100.79202911 211.06343323 100.45905823 210.37686646 100.11599731 209.66949463 C97.7443545 204.77949023 95.3722337 199.88971777 93 195 C90.29133789 189.4168261 87.58290388 183.8335417 84.875 178.25 C84.54162628 177.56262756 84.20825256 176.87525513 83.86477661 176.16705322 C78.68300795 165.48194194 73.51772718 154.78897634 68.35888672 144.09277344 C63.75571763 134.55383258 59.13037033 125.02576214 54.5 115.5 C48.72665099 103.62286157 42.97080858 91.73755497 37.23388672 79.84277344 C33.20889651 71.49931609 29.1736678 63.16089301 25.13137817 54.82580566 C24.13244674 52.76536001 23.13436897 50.70450277 22.13647461 48.64355469 C18.96536995 42.09689543 15.78550794 35.55481978 12.58029175 29.02478027 C11.07852868 25.96397659 9.58104483 22.90108884 8.08392334 19.8380127 C7.36557409 18.3713813 6.64509853 16.90578931 5.92242432 15.44128418 C4.92215565 13.41392217 3.92908783 11.38318102 2.9375 9.3515625 C2.36902344 8.19479004 1.80054687 7.03801758 1.21484375 5.84619141 C0 3 0 3 0 0 Z " fill="#000000" transform="translate(2385,2174)"/>
<path d="M0 0 C12.41636725 8.95371698 20.94182617 23.04219931 24 38 C25.47262978 52.02619515 20.3677592 66.21991043 13 78 C12.41710205 78.48782959 11.8342041 78.97565918 11.23364258 79.47827148 C7.55011443 82.6805864 5.86613734 85.41457146 5.4074707 90.26879883 C5.14533212 95.57466254 5.22067418 100.87791649 5.3125 106.1875 C5.65592686 135.76153395 5.65592686 135.76153395 -4.00390625 147.0625 C-13.69026809 156.46452637 -24.28045296 158.46497176 -37.36328125 158.33984375 C-47.84080941 157.36074069 -55.61728616 151.96043967 -62.4921875 144.34765625 C-68.3126107 137.02907678 -69.43335131 128.29562253 -69.1953125 119.22265625 C-69.1883445 117.39128189 -69.1831917 115.55989989 -69.1796875 113.72851562 C-69.15908846 110.892959 -69.12493516 108.0597293 -69.05859375 105.22485352 C-68.5203603 91.96319771 -68.5203603 91.96319771 -74.34375 80.5625 C-75.52614258 79.42167969 -75.52614258 79.42167969 -76.73242188 78.2578125 C-80.75611808 74.25144488 -82.81333723 69.17229848 -85 64 C-85.3403125 63.21367188 -85.680625 62.42734375 -86.03125 61.6171875 C-90.417959 49.6349731 -88.96186218 35.51387603 -84 24 C-77.00972888 9.20361709 -65.77831769 -0.78157139 -50.87890625 -7.3828125 C-33.38163077 -13.63027915 -15.33044238 -10.05620762 0 0 Z " fill="#01AED6" transform="translate(1818,910)"/>
</svg>
