<?xml version="1.0" encoding="UTF-8"?>
<svg version="1.1" xmlns="http://www.w3.org/2000/svg" width="600" height="600">
<path d="M0 0 C198 0 396 0 600 0 C600 198 600 396 600 600 C402 600 204 600 0 600 C0 402 0 204 0 0 Z " fill="#FEFEFE" transform="translate(0,0)"/>
<path d="M0 0 C45.21 0 90.42 0 137 0 C137 11.55 137 23.1 137 35 C108.95 35 80.9 35 52 35 C52 40.28 52 45.56 52 51 C80.05 51 108.1 51 137 51 C137 79.38 137 107.76 137 137 C91.79 137 46.58 137 0 137 C0 125.78 0 114.56 0 103 C28.38 103 56.76 103 86 103 C86 97.39 86 91.78 86 86 C57.62 86 29.24 86 0 86 C0 57.62 0 29.24 0 0 Z " fill="#040404" transform="translate(411,219)"/>
<path d="M0 0 C45.21 0 90.42 0 137 0 C137 28.38 137 56.76 137 86 C119.84 86.33 102.68 86.66 85 87 C93.415 94.92 93.415 94.92 102 103 C108.5625 109.5625 108.5625 109.5625 111.44921875 112.48046875 C113.53514853 114.5408435 115.64140636 116.47997213 117.875 118.375 C121.94802249 121.84140212 125.71471455 125.60105057 129.5 129.375 C130.45495361 130.32318604 130.45495361 130.32318604 131.42919922 131.29052734 C132.01975098 131.8830127 132.61030273 132.47549805 133.21875 133.0859375 C133.75435547 133.6226709 134.28996094 134.1594043 134.84179688 134.71240234 C136 136 136 136 136 137 C119.45232023 140.14896748 96.62185889 144.44005941 81.52600098 134.97875977 C65.6808077 124.00077628 52.78331685 107.86234849 40.76391602 92.98684692 C38.96948292 90.79624701 38.96948292 90.79624701 36 89 C36 88.34 36 87.68 36 87 C35.34 87 34.68 87 34 87 C34 103.5 34 120 34 137 C22.78 137 11.56 137 0 137 C0 108.95 0 80.9 0 52 C33.99 52 67.98 52 103 52 C103 46.39 103 40.78 103 35 C69.01 35 35.02 35 0 35 C0 23.45 0 11.9 0 0 Z " fill="#030303" transform="translate(205,219)"/>
<path d="M0 0 C10.56 0 21.12 0 32 0 C32 33.99 32 67.98 32 103 C49.16 103 66.32 103 84 103 C84 114.22 84 125.44 84 137 C73.08230493 137.04512305 62.16467145 137.08184231 51.24690437 137.10362434 C46.17775137 137.1140768 41.10866527 137.12826257 36.03955078 137.15087891 C31.15070815 137.17255528 26.26193002 137.1845576 21.37304306 137.18975449 C19.50465758 137.19345963 17.63627577 137.20069449 15.76791763 137.21146011 C13.15786261 137.22590594 10.54807663 137.22798086 7.93798828 137.22705078 C7.1597168 137.23424133 6.38144531 137.24143188 5.57958984 137.24884033 C0.22810432 137.22810432 0.22810432 137.22810432 -2 135 C-2.25168228 132.68238068 -2.25168228 132.68238068 -2.25396729 129.72375488 C-2.25960693 128.60481339 -2.26524658 127.48587189 -2.27105713 126.33302307 C-2.26700867 125.09970749 -2.26296021 123.86639191 -2.25878906 122.59570312 C-2.2622937 121.30139877 -2.26579834 120.00709442 -2.26940918 118.67356873 C-2.27854628 115.11784326 -2.27498354 111.56223352 -2.26865101 108.00650597 C-2.26359782 104.29050757 -2.26828056 100.57451928 -2.27142334 96.85852051 C-2.27506498 90.61741349 -2.27025872 84.37635375 -2.26074219 78.13525391 C-2.24985724 70.91318806 -2.25338268 63.69123511 -2.264395 56.469172 C-2.27346226 50.27551127 -2.27475591 44.08188458 -2.26951766 37.88821936 C-2.26639486 34.18592318 -2.26599708 30.48368012 -2.27259064 26.78138733 C-2.27942473 22.65562215 -2.26996053 18.53005254 -2.25878906 14.40429688 C-2.26283752 13.17098129 -2.26688599 11.93766571 -2.27105713 10.66697693 C-2.26541748 9.54803543 -2.25977783 8.42909393 -2.25396729 7.27624512 C-2.25283621 5.81172535 -2.25283621 5.81172535 -2.25168228 4.31761932 C-2 2 -2 2 0 0 Z " fill="#030303" transform="translate(53,219)"/>
<path d="M0 0 C11.55 0 23.1 0 35 0 C35 45.21 35 90.42 35 137 C23.45 137 11.9 137 0 137 C0 91.79 0 46.58 0 0 Z " fill="#070707" transform="translate(359,219)"/>
<path d="M0 0 C10.77003613 -0.0677186 21.53993136 -0.122783 32.31013203 -0.15543652 C37.31092029 -0.17110684 42.31155562 -0.19237004 47.31225586 -0.22631836 C52.13627314 -0.25886309 56.96014313 -0.27684271 61.7842617 -0.28463173 C63.62671414 -0.29018404 65.46915833 -0.30102608 67.31154823 -0.31719017 C69.88797184 -0.33889965 72.46378317 -0.34196967 75.0402832 -0.34057617 C76.18827141 -0.35675491 76.18827141 -0.35675491 77.35945129 -0.3732605 C80.16908624 -0.35676664 82.45360428 -0.28307004 84.97619629 1.02380371 C86.62556235 4.20749122 86.38989229 7.46041376 86.34057617 10.9597168 C86.34123329 12.17469345 86.34123329 12.17469345 86.34190369 13.41421509 C86.33981284 16.09279444 86.31646814 18.77074868 86.29296875 21.44921875 C86.28737384 23.30580809 86.28310325 25.16240185 86.28010559 27.01899719 C86.26864854 31.90666929 86.23917394 36.79407415 86.20599365 41.68164062 C86.17531132 46.66858301 86.16160418 51.65556856 86.14648438 56.64257812 C86.11430502 66.42852175 86.06153006 76.21419685 86 86 C74.45 86 62.9 86 51 86 C51 69.17 51 52.34 51 35 C34.17 35 17.34 35 0 35 C0 23.45 0 11.9 0 0 Z " fill="#070707" transform="translate(102,219)"/>
<path d="M0 0 C11.22 0 22.44 0 34 0 C34 25.41 34 50.82 34 77 C22.78 77 11.56 77 0 77 C0 51.59 0 26.18 0 0 Z " fill="#020202" transform="translate(154,322)"/>
<path d="M0 0 C11.55 0 23.1 0 35 0 C35 11.22 35 22.44 35 34 C23.45 34 11.9 34 0 34 C0 22.78 0 11.56 0 0 Z " fill="#0E0E0E" transform="translate(102,271)"/>
<path d="M0 0 C1.18580658 0.00444122 2.37161316 0.00888245 3.59335327 0.01345825 C4.24713455 0.0131662 4.90091583 0.01287415 5.57450867 0.01257324 C7.73896483 0.01396839 9.90307822 0.02953783 12.06747437 0.04519653 C13.56677055 0.04892602 15.06606916 0.05177329 16.56536865 0.05377197 C20.5142793 0.06141355 24.46304316 0.08106644 28.41189575 0.10317993 C32.44029759 0.12362713 36.46872311 0.13277127 40.49716187 0.14285278 C48.40347928 0.16431192 56.30967732 0.19845409 64.21591187 0.24050903 C64.21591187 3.21050903 64.21591187 6.18050903 64.21591187 9.24050903 C44.74591187 9.57050903 25.27591187 9.90050903 5.21591187 10.24050903 C4.88591187 29.71050903 4.55591187 49.18050903 4.21591187 69.24050903 C1.24591187 69.24050903 -1.72408813 69.24050903 -4.78408813 69.24050903 C-4.83037144 60.53935322 -4.86593685 51.83823961 -4.88771248 43.13698769 C-4.8981622 39.09690639 -4.91234294 35.05690914 -4.93496704 31.01687622 C-4.95665325 27.1200617 -4.9686478 23.22332817 -4.97384262 19.32645798 C-4.977546 17.83765767 -4.98477751 16.34886193 -4.99554825 14.86009598 C-5.01000733 12.77928237 -5.01206846 10.69880597 -5.01113892 8.61795044 C-5.01558014 7.43214386 -5.02002136 6.24633728 -5.02459717 5.02459717 C-4.69145819 1.16824196 -3.85635521 0.33313897 0 0 Z " fill="#0E0E0E" transform="translate(34.784088134765625,199.75949096679688)"/>
<path d="M0 0 C2.97 0 5.94 0 9 0 C9.06947395 8.5534877 9.12279776 17.10685775 9.15543652 25.66055775 C9.17110056 29.63228627 9.19235199 33.60382193 9.22631836 37.57543945 C9.25888596 41.40743089 9.27684745 45.23923668 9.28463173 49.07135582 C9.29017996 50.53422659 9.30101425 51.99708707 9.31719017 53.45987892 C9.33893079 55.50708696 9.34196847 57.5535254 9.34057617 59.60083008 C9.35056892 61.34956169 9.35056892 61.34956169 9.36076355 63.13362122 C9 66 9 66 7.87866211 67.87866211 C5.09071046 69.54273773 2.8326857 69.35904392 -0.39916992 69.34057617 C-1.04334366 69.34101425 -1.6875174 69.34145233 -2.35121155 69.34190369 C-4.47794021 69.33981559 -6.60387802 69.31648513 -8.73046875 69.29296875 C-10.20591298 69.28737283 -11.68136278 69.28310271 -13.15681458 69.28010559 C-17.03839534 69.26865637 -20.91963883 69.23918887 -24.80108643 69.20599365 C-28.76252683 69.17529424 -32.72402178 69.16160055 -36.68554688 69.14648438 C-44.45718494 69.11431894 -52.22854519 69.06312205 -60 69 C-60 66.03 -60 63.06 -60 60 C-58.91338829 59.9845388 -58.91338829 59.9845388 -57.80482483 59.96876526 C-50.99148098 59.87095232 -44.178222 59.76846141 -37.36502934 59.66066074 C-33.86195645 59.60540045 -30.35887527 59.55197566 -26.85571289 59.50268555 C-22.83209856 59.44599332 -18.80864469 59.38142599 -14.78515625 59.31640625 C-13.52163834 59.29969376 -12.25812042 59.28298126 -10.95631409 59.26576233 C-9.795186 59.24581711 -8.63405792 59.22587189 -7.43774414 59.20532227 C-6.40960098 59.18977798 -5.38145782 59.1742337 -4.32215881 59.15821838 C-2.03914647 59.25828129 -2.03914647 59.25828129 -1 58 C-0.87669912 56.1903226 -0.82209817 54.37592163 -0.79467773 52.56225586 C-0.77473251 51.40112778 -0.75478729 50.23999969 -0.73423767 49.04368591 C-0.71752518 47.780168 -0.70081268 46.51665009 -0.68359375 45.21484375 C-0.66281265 43.92888809 -0.64203156 42.64293243 -0.62062073 41.31800842 C-0.56533824 37.89364096 -0.51595639 34.4692125 -0.46777344 31.04473877 C-0.41760335 27.55255686 -0.3618939 24.0604639 -0.30664062 20.56835938 C-0.1989836 13.71231667 -0.09755551 6.85619367 0 0 Z " fill="#0F0F0F" transform="translate(561,311)"/>
<path d="M0 0 C5.61 0 11.22 0 17 0 C17 5.61 17 11.22 17 17 C11.39 17 5.78 17 0 17 C0 11.39 0 5.78 0 0 Z " fill="#F8F8F8" transform="translate(111,279)"/>
</svg>
